<?xml version="1.0" encoding="utf-8"?>
<!-- Generator: Adobe Illustrator 17.1.0, SVG Export Plug-In . SVG Version: 6.00 Build 0)  -->
<!DOCTYPE svg PUBLIC "-//W3C//DTD SVG 1.1//EN" "http://www.w3.org/Graphics/SVG/1.1/DTD/svg11.dtd">
<svg version="1.1" id="facebook-square" xmlns="http://www.w3.org/2000/svg" xmlns:xlink="http://www.w3.org/1999/xlink" x="0px"
	 y="0px" viewBox="0 0 841.9 595.3" enable-background="new 0 0 841.9 595.3" xml:space="preserve">
<path fill="#FFFFFF" d="M615.4,6H226.5c-53.5,0-97.2,43.8-97.2,97.2v388.9c0,53.5,43.8,97.2,97.2,97.2h388.9
	c53.5,0,97.2-43.7,97.2-97.2V103.2C712.6,49.7,668.9,6,615.4,6L615.4,6z M625.2,297.6h-94.9v255.2H420.9V297.6h-52.7v-83.5h52.7
	v-54.2c0-73.7,31.8-117.5,118.4-117.5h99.8v90.3h-81.5c-24.2,0-27.2,12.6-27.2,36.2l-0.1,45.2h109.4L625.2,297.6L625.2,297.6
	L625.2,297.6z"/>
</svg>
