<?xml version="1.0" encoding="utf-8"?>
<!-- Generator: Adobe Illustrator 17.1.0, SVG Export Plug-In . SVG Version: 6.00 Build 0)  -->
<!DOCTYPE svg PUBLIC "-//W3C//DTD SVG 1.1//EN" "http://www.w3.org/Graphics/SVG/1.1/DTD/svg11.dtd">
<svg version="1.1" id="instagram" xmlns="http://www.w3.org/2000/svg" xmlns:xlink="http://www.w3.org/1999/xlink" x="0px" y="0px"
	 viewBox="0 0 841.9 595.3" enable-background="new 0 0 841.9 595.3" xml:space="preserve">
<path fill="#FFFFFF" d="M648.3,6H193.5c-35.4,0-64.1,28.7-64.1,64.2v455c0,35.4,28.7,64.2,64.1,64.2h454.8
	c35.4,0,64.1-28.7,64.1-64.2v-455C712.5,34.7,683.8,6,648.3,6z M420.6,185.6c61.6,0,111.6,50,111.6,111.7
	c0,61.7-50,111.7-111.6,111.7S309,359,309,297.3S359,185.6,420.6,185.6z M644.3,497.7c0,12.9-10.4,23.3-23.3,23.3H220.6
	c-12.9,0-23.3-10.4-23.3-23.3V253.3h50.6c-3.5,14-5.4,28.6-5.4,43.7c0,98.9,80.1,179.1,179,179.1s179-80.2,179-179.1
	c0-15.1-1.9-29.7-5.4-43.7h49.2V497.7L644.3,497.7z M645.7,161.5c0,12.9-10.4,23.3-23.3,23.3h-66.2c-12.9,0-23.3-10.4-23.3-23.3
	V95.2c0-12.9,10.4-23.3,23.3-23.3h66.2c12.9,0,23.3,10.4,23.3,23.3V161.5z"/>
</svg>
