<?xml version="1.0" encoding="utf-8"?>
<!-- Generator: Adobe Illustrator 17.1.0, SVG Export Plug-In . SVG Version: 6.00 Build 0)  -->
<!DOCTYPE svg PUBLIC "-//W3C//DTD SVG 1.1//EN" "http://www.w3.org/Graphics/SVG/1.1/DTD/svg11.dtd">
<svg version="1.1" id="yelp" xmlns="http://www.w3.org/2000/svg" xmlns:xlink="http://www.w3.org/1999/xlink" x="0px" y="0px"
	 viewBox="0 0 841.9 595.3" enable-background="new 0 0 841.9 595.3" xml:space="preserve">
<path fill="#FFFDFD" d="M375.4,347.7c0.4-15.2-18.2-24.3-18.2-24.3l-123.4-62.4c0,0-18.3-7.5-27.2-2.3c-6.8,4-12.8,11.3-13.4,17.7
	l-8,99c0,0-1.2,17.2,3.2,25c6.3,11.1,27,3.4,27,3.4l144.1-31.9C365,368.1,374.8,367.8,375.4,347.7z M376.9,259.4
	c0,0,11.8,12.2,26.8,8.5c16.3-4,18.9-27.7,18.9-27.7l-1.1-197c0,0-2.5-24.3-13.4-30.9C391,1.9,385.9,7.3,381,8.1L266.2,50.8
	c0,0-11.2,3.7-17.1,13.1c-8.4,13.3,8.5,32.8,8.5,32.8L376.9,259.4z M495.7,324.4L634,284c0,0,18.8-7.7,21.5-17.9
	c2.6-10.2-3.1-22.6-3.1-22.6l-66.1-77.9c0,0-5.7-9.8-17.6-10.8c-13.1-1.1-21.2,14.8-21.2,14.8l-78.2,123.1c0,0-6.9,12.3-0.4,23.3
	C476.2,327.9,495.7,324.4,495.7,324.4z M411.2,401.1c-12.4-6.4-27.2,6.8-27.2,6.8l-96.5,106.3c0,0-12,16.2-9,26.2
	c2.9,9.4,7.7,14,14.4,17.3l96.9,30.6c0,0,11.8,2.4,20.6-0.1c12.6-3.7,10.3-23.5,10.3-23.5l2.2-143.9
	C423,420.8,422.5,407,411.2,401.1z M637.3,417.3l-138.6-44.6c0,0-13.6-3.6-22.6,5.5c-9.8,9.9-1.5,28-1.5,28L548.6,530
	c0,0,12.2,16.3,22.7,16.3c10.6,0,21-8.7,21-8.7l58.6-83.7c0,0,5.9-10.6,6-19.8C657.2,420.9,637.3,417.3,637.3,417.3z"/>
</svg>
