<?xml version="1.0" encoding="utf-8"?>
<!-- Generator: Adobe Illustrator 17.1.0, SVG Export Plug-In . SVG Version: 6.00 Build 0)  -->
<!DOCTYPE svg PUBLIC "-//W3C//DTD SVG 1.1//EN" "http://www.w3.org/Graphics/SVG/1.1/DTD/svg11.dtd">
<svg version="1.1" id="youtube" xmlns="http://www.w3.org/2000/svg" xmlns:xlink="http://www.w3.org/1999/xlink" x="0px" y="0px"
	 viewBox="0 0 841.9 595.3" enable-background="new 0 0 841.9 595.3" xml:space="preserve">
<path fill="#FFFFFF" d="M702.4,156.9c-6-31.9-32.5-55.6-62.9-58.6c-72.7-4.7-145.8-8.5-218.7-8.5c-72.9,0-145.6,3.7-218.4,8.3
	c-30.6,3-57.1,26.6-63,58.6c-6.8,46.1-10.1,92.5-10.1,139s3.4,93,10.1,139c5.9,32,32.4,58.5,63,61.4c72.8,4.6,145.5,9.3,218.4,9.3
	c72.9,0,145.9-4.1,218.7-8.8c30.5-3,57-30.2,62.9-62.1c6.8-46,10.2-92.4,10.2-138.8C712.6,249.3,709.2,202.9,702.4,156.9z
	 M354.8,379.5V210l157.9,84.8L354.8,379.5z"/>
</svg>
